<svg xmlns="http://www.w3.org/2000/svg" viewBox="0 0 595.39 470.42"><defs><style>.cls-1{fill:#ca3d2b;}.cls-2{fill:#392520;}.cls-3{fill:#c38271;}.cls-4{fill:#a3c73d;}.cls-5{fill:#35221d;}.cls-6{fill:#fff;}.cls-7{fill:#ac4f38;}</style></defs><g id="Capa_2" data-name="Capa 2"><g id="Capa_1-2" data-name="Capa 1"><path class="cls-1" d="M386.32,0H387c-.48,5.16-4.21,8.23-7.57,11.45-6.71,6.44-13.75,12.56-19.5,19.89C338.13,59.1,314.12,85,291.52,112c-2.63,3.15-5.65,6-7.5,9.78l-.41.31.4.09,0-.43c1.69.69,3-.43,4.36-1,7.63-3.22,15.19-6.66,23.13-9,26.32-7.8,53.17-13.44,80.05-18.83C429.62,85.29,468,79.16,506.57,74.29c11.78-1.48,23.62-2.71,35.54-1.59,1.38.13,3.33-.25,3.78,1.42.4,1.45-1,2.61-2.09,3.58-3.89,3.59-8.4,6.34-12.88,9.1-20,12.39-39.44,25.67-57.51,40.83-27,22.66-55.89,42.75-85.25,62.17-2.66,1.75-5.48,3.26-8.22,4.88l.22.85c17,.25,33.8-3,50.77-4-14.51,8-28.9,16.14-43.73,25a28.24,28.24,0,0,0,4.56.69,116.45,116.45,0,0,0,12.41-.77c26.19-3.77,52.39-1.83,78.56,0,17.12,1.16,34.19,2.72,51.38,2,6-.26,12,0,18.6,0-27.59,16.09-54.37,32.39-80,50.56,8.49-1,16.74.48,25.07,1-15.85,6.3-31.69,12.33-47.82,17.59s-32.53,9.23-49.39,14.42c65.63-7.76,130.29-7.67,194.86,3.05a162.44,162.44,0,0,1-12.73,10.69c-5,3.9-9.9,8-15.89,10.56q-60.85,25.94-120,55.59a24.78,24.78,0,0,1-6,1.86c-11.89,2.64-24.06,4.14-35.48,8.73a39.39,39.39,0,0,1-9.64,2.82c-1.69.21-2.46,1-2.58,2.83q-1,14.94-.76,29.89c-2.79.58-2.69,3.56-4.24,5.35-2.94-3.39-4.26-8.65-9.72-8.55-6.11.12-6.37,5.27-7.11,10.71-1.28-2.53-2-4-2.79-5.51-2.68-5.27-5.62-5.95-10.4-2.42a145.18,145.18,0,0,1-3.77-20.37c-.24-2-.94-2.4-2.79-1.75-2.09.75-4.35,1.93-6.4,1.7-8.17-.89-12.85,3-15.54,10.21a12.55,12.55,0,0,1-1.35,2.31c-6.06,9.55-12.84,18.53-21.27,26.14-1.26-.1-2.28-.3-1.53-2a20,20,0,0,0,1.2-3.83c1-4.91-3.14-8.57-7.92-7.24-2.47.69-4.17,2.58-6.39,3.64l-.34-.35c1.95-4.62,1.1-7.56-2.34-8.38-1.52-.36-2.79.81-4.26.45,3.31-7.6,7.93-14.43,11.65-21.59-3-.83-6.88,0-10.77.22-6,.32-12-.91-17.9-1.22-16.65-.88-33.32-1.3-49.93-2.77-2-.18-2.54.28-2.17,2.34a162.3,162.3,0,0,1,2.6,29,5.54,5.54,0,0,0-2.85.81c-2.35,1.4-4,.34-5.38-1.59-.51-.72-.9-1.53-1.35-2.31-1-1.74-2.36-3-4.52-2.88-2.33.14-3.47,1.7-4.31,3.67s-1.13,4.07-3,5.91c-.83-1.63-1.55-3.1-2.32-4.54-2.36-4.37-5.13-5-9.24-2.18A99.1,99.1,0,0,1,177,403.17c-.36-2-1.06-2.75-3.17-2.87-8.43-.49-16.84-1.36-25.27-1.77-8.73-.42-17.3-2.24-26-2.86-3.21-.22-4.08,1.06-4.13,3.91-.16,10.6-4.12,20.19-8.07,29.76-.29-1.64-.48-3.32-.9-4.93-1-3.84-3.89-4.64-6.65-1.86-1.18,1.19-2.19,2.54-3.39,3.72-2.7,2.67-4.09,2.7-6.68.13-1.19-1.19-1.07-2.87-1.27-4.41a3.59,3.59,0,0,0-2.29-3.09c-1.43-.55-2.22.62-3.15,1.41-2.47,2.09-2.78,5.63-5.22,7.73,1.22-11.11,0-22.42,2.73-33.38.51-2-.16-2.48-1.88-2.77-5.07-.87-10.11-2-15.2-2.69a9.35,9.35,0,0,1-6-3.3,329.68,329.68,0,0,0-32.11-31.54,11.93,11.93,0,0,1-3.23-3.82c-11.88-24.32-22.42-49.05-24-76.63C1,270.58,1.54,267,0,263.81v-1.34A37.56,37.56,0,0,0,0,247v-1.35c2.57-3.65,2.9-8.09,4.32-12.15,13.19-37.67,36-68.38,67.57-92.54,28.71-22,60-40,92.31-56C207.89,63.25,253.38,45.52,299,28.41,327.68,17.68,356.51,7.26,386.32,0ZM72.52,317.7c-.62.92-1.68,1-2.59,1.42-9.4,4-18.78,7.94-27.78,12.77-2.51,1.34-2.93,2.71-1.57,5,2.14,3.62,5.13,6.48,8.11,9.35s6.48,5.19,8.49,8.53c2.68,4.47,6.78,7.13,10.62,10,6,4.46,12.67,8.07,19,12.11,3.94,2.5,8.46,2.95,12.84,3.06,2.72.08,4-3.23,6.06-4.86,1.72-1.35,3.15-3.13,4.79-4.5,1.46-1.22.45-4.17,3.21-4.12.71-4.43,3.06-8.31,4.32-12.54,1.09-3.67,2.4-7.54,2.25-11.26-.22-5.09-.15-10.2-.56-15.28-.73-8.85-1.63-17.69-1.56-26.59,0-2-.17-4-2.51-4.79-.14-2.17,1.45-3.67,2.11-5.54,5.16-14.7,6.41-29.91,5.43-45.29-1-15.87-6.46-30.19-17.1-42.17C95.74,191.35,83.36,184.32,67,187c-9.09,1.5-17.76,3.72-24.87,10-14.18,12.52-20.65,28.66-21.85,47.14-.33,5,.66,10.08.27,15.07a47.47,47.47,0,0,0,.72,14.69c5.11,21.62,20,34.19,39.7,42.12a14.62,14.62,0,0,0,6.28,1A18.35,18.35,0,0,1,72.52,317.7Zm143.94,26.92c18.26.45,31.9-2.32,43.91-10.41a81,81,0,0,0,33.5-83.81c-1.45-6.94-4.34-13.42-5.84-20.31-3.84-17.6-11.92-32.69-25.56-44.72a68.59,68.59,0,0,0-82.17-6.74c-17.34,10.94-28,27.05-35.6,45.62a93.94,93.94,0,0,0-7.21,37,85.53,85.53,0,0,0,8,34.8c9.24,20.1,23,35.7,44.08,44C199.48,343.92,209.9,344.53,216.46,344.62Z"/><path class="cls-2" d="M208.64,470.42a6.12,6.12,0,0,0-4.53-2.31c-4.88-.63-7.87-3.53-9.93-7.65a66.41,66.41,0,0,1-5.34-15.17c-1.07-4.79-2-9.6-3.05-14.41,4.11-2.83,6.88-2.18,9.24,2.19.77,1.44,1.49,2.91,2.32,4.54,1.9-1.84,2.23-4,3-5.91s2-3.53,4.31-3.67c2.16-.12,3.51,1.14,4.52,2.88.45.78.84,1.59,1.35,2.31,1.36,1.93,3,3,5.38,1.59a5.54,5.54,0,0,1,2.85-.81c1,3.82.31,7.74.63,11.61.46,5.55.41,11.14.5,16.71s-1.32,7.11-6.93,7.38c-.78,0-1.83-.41-2.33.72Z"/><path class="cls-3" d="M0,247a37.56,37.56,0,0,1,0,15.48Z"/><path class="cls-4" d="M216.46,344.62c-6.56-.09-17-.7-26.85-4.58-21-8.27-34.84-23.87-44.08-44a85.53,85.53,0,0,1-8-34.8,93.94,93.94,0,0,1,7.21-37c7.58-18.57,18.26-34.68,35.6-45.62a68.59,68.59,0,0,1,82.17,6.74c13.64,12,21.72,27.12,25.56,44.72,1.5,6.89,4.39,13.37,5.84,20.31a81,81,0,0,1-33.5,83.81C248.36,342.3,234.72,345.07,216.46,344.62Zm-52.49-79a70.09,70.09,0,0,0,3.61,20.4c5.1,16,14,28.53,31.15,33.42a41.92,41.92,0,0,0,15,1.3c7.08-.55,13.77-2.57,20.62-4.28,15.18-3.79,24.8-13.22,30.57-27.17a89.3,89.3,0,0,1,5-10.62,29.64,29.64,0,0,0,3.53-18.84c-2.28-18.63-10.44-34-25.58-45.55a37.54,37.54,0,0,0-15.37-7.2c-9.77-2-19.41-1-29,1.17a11.19,11.19,0,0,1-5.3.28c-4.72-1.2-8.61.35-11.88,3.71a72.86,72.86,0,0,0-10.07,12.58C168.69,237,163,249.78,164,265.64Z"/><path class="cls-4" d="M72.52,317.7a18.35,18.35,0,0,0-5.31-.68,14.62,14.62,0,0,1-6.28-1c-19.69-7.93-34.59-20.5-39.7-42.12a47.47,47.47,0,0,1-.72-14.69c.39-5-.6-10.08-.27-15.07,1.2-18.48,7.67-34.62,21.85-47.14,7.11-6.28,15.78-8.5,24.87-10,16.4-2.72,28.78,4.31,39.13,16,10.64,12,16.09,26.3,17.1,42.17,1,15.38-.27,30.59-5.43,45.29-.66,1.87-2.25,3.37-2.11,5.54l.07,0c-.57-.1-.7.24-.69.72l0,0-.68.11c-.34.39-.6.94-1,1.14-5.93,2.79-11.88,5.52-17.83,8.27-5.67,2.63-11.38,5.18-17,7.94C76.47,315.2,74,315.63,72.52,317.7Zm39.06-60.25a63.16,63.16,0,0,0-7.15-27.54C92.2,207,62,207,46.66,222.29c-9.35,9.35-12.09,20.78-10.21,33.35,4,26.8,16.26,36.52,35.12,40.83,8.67,2,16.63,1.47,23.72-4.52C105.85,283.05,111.43,271.83,111.58,257.45Z"/><path class="cls-5" d="M72.52,317.7c1.47-2.07,4-2.5,6-3.52,5.6-2.76,11.31-5.31,17-7.94,6-2.75,11.9-5.48,17.83-8.27.43-.2.69-.75,1-1.14.32.54.54.5.68-.11l0,0,.69-.72-.07,0c2.34.8,2.53,2.77,2.51,4.79-.07,8.9.83,17.74,1.56,26.59.41,5.08.34,10.19.56,15.28.15,3.72-1.16,7.59-2.25,11.26-1.26,4.23-3.61,8.11-4.32,12.54-2.76-.05-1.75,2.9-3.21,4.12-1.64,1.37-3.07,3.15-4.79,4.5-2.07,1.63-3.34,4.94-6.06,4.86-4.38-.11-8.9-.56-12.84-3.06-6.34-4-13-7.65-19-12.11-3.84-2.85-7.94-5.51-10.62-10-2-3.34-5.59-5.73-8.49-8.53s-6-5.73-8.11-9.35c-1.36-2.32-.94-3.69,1.57-5,9-4.83,18.38-8.81,27.78-12.77C70.84,318.74,71.9,318.62,72.52,317.7Z"/><path class="cls-2" d="M110.36,429.34c-4,9.76-7,20-13.72,28.47a27.78,27.78,0,0,1-7.77,6.79c-3.57,2.1-7.09.95-10.14-1-2.87-1.84-2.89-5-2.46-8.16,1-8,2.08-15.94,3.74-23.81.25-1.2.53-2.39.8-3.58,2.44-2.1,2.75-5.64,5.22-7.73.93-.79,1.72-2,3.15-1.41A3.59,3.59,0,0,1,91.47,422c.2,1.54.08,3.22,1.27,4.41,2.59,2.57,4,2.54,6.68-.13,1.2-1.18,2.21-2.53,3.39-3.72,2.76-2.78,5.65-2,6.65,1.86C109.88,426,110.07,427.7,110.36,429.34Z"/><path class="cls-2" d="M284.66,429v0c.43-.18.76-.43.67-1h0c1.47.36,2.74-.81,4.26-.45,3.44.82,4.29,3.76,2.34,8.38-.22.2-.48.41-.09.66.05,0,.28-.2.43-.31,2.22-1.06,3.92-2.95,6.39-3.64,4.78-1.33,8.9,2.33,7.92,7.24a20,20,0,0,1-1.2,3.83c-.75,1.72.27,1.92,1.53,2-4.37,5-9.94,8.63-15.18,12.59-4.88,3.7-9.55,7.77-15.92,8.95-4.69.86-8.48-.21-10.72-3.52-2.36-3.48-2.3-7.15.85-11.16,4.13-5.28,8.66-10.24,12.91-15.43,1.83-2.25,3.39-4.72,5.07-7.09A1.11,1.11,0,0,0,284.66,429Z"/><path class="cls-2" d="M392.27,427.9A16.56,16.56,0,0,1,391,439.78c-2.27,4.48-2.83,9.83-4.09,14.81a24.24,24.24,0,0,1-2.11,6c-1.63,2.91-4.17,4.56-7.47,4-7.13-1.16-13.16-4.27-15.33-11.73a118.92,118.92,0,0,1-4-25.39c4.78-3.53,7.72-2.85,10.4,2.42.76,1.48,1.51,3,2.79,5.51.74-5.44,1-10.59,7.11-10.71,5.46-.1,6.78,5.16,9.72,8.55C389.58,431.46,389.48,428.48,392.27,427.9Z"/><path class="cls-6" d="M284,121.78l0,.43-.4-.09.41-.31Z"/><path class="cls-7" d="M285.34,428c.09.54-.24.79-.67,1C284.64,428.46,284.75,428.05,285.34,428Z"/><path class="cls-7" d="M284.66,429a1.11,1.11,0,0,1-.76,1.07A1,1,0,0,1,284.66,429Z"/><path class="cls-5" d="M164,265.64c-1-15.86,4.72-28.63,12.2-40.8a72.86,72.86,0,0,1,10.07-12.58c3.27-3.36,7.16-4.91,11.88-3.71a11.19,11.19,0,0,0,5.3-.28c9.6-2.16,19.24-3.16,29-1.17a37.54,37.54,0,0,1,15.37,7.2c15.14,11.51,23.3,26.92,25.58,45.55a29.64,29.64,0,0,1-3.53,18.84,89.3,89.3,0,0,0-5,10.62c-5.77,13.95-15.39,23.38-30.57,27.17-6.85,1.71-13.54,3.73-20.62,4.28a41.92,41.92,0,0,1-15-1.3c-17.15-4.89-26-17.38-31.15-33.42A70.09,70.09,0,0,1,164,265.64Z"/><path class="cls-5" d="M111.58,257.45c-.15,14.38-5.73,25.6-16.29,34.5-7.09,6-15.05,6.5-23.72,4.52-18.86-4.31-31.13-14-35.12-40.83-1.88-12.57.86-24,10.21-33.35C62,207,92.2,207,104.43,229.91A63.16,63.16,0,0,1,111.58,257.45Z"/><path class="cls-7" d="M115.72,296.05l-.69.72C115,296.29,115.15,296,115.72,296.05Z"/><path class="cls-7" d="M115.06,296.72c-.14.61-.36.65-.68.11Z"/><path class="cls-7" d="M292.25,436.27c-.15.11-.38.34-.43.31-.39-.25-.13-.46.09-.66Z"/></g></g></svg>